<?xml version="1.0" encoding="utf-8"?>
<!-- Generator: Adobe Illustrator 25.4.1, SVG Export Plug-In . SVG Version: 6.00 Build 0)  -->
<svg version="1.1" id="Livello_1" xmlns="http://www.w3.org/2000/svg" xmlns:xlink="http://www.w3.org/1999/xlink" x="0px" y="0px"
	 viewBox="0 0 112.5 15.3" style="enable-background:new 0 0 112.5 15.3;" xml:space="preserve">
<path d="M5.4,12.6l2.7,2.7h6.6V0H9.2v2.7L6.5,0H0v15.3h5.4V12.6z M8.6,15l3.9-4.3l1.9,4.3L8.6,15L8.6,15z M14.5,14.4l-1.7-4l1.7-8.9
	V14.4z M14.4,0.3L12.5,10L9.5,3V0.3L14.4,0.3L14.4,0.3z M9.4,3.4l3,7l-4.1,4.5l-2.7-2.7L9.4,3.4z M6.1,0.3L2.2,6.6L0.4,0.3H6.1z
	 M0.3,1.1L2,7l-1.7,7V1.1z M5.2,15H0.3l1.9-7.6l2.9,4.9V15z M2.3,7l4.1-6.6l2.7,2.7L5.3,12L2.3,7z"/>
<path d="M31.5,2.9l-4-2.9h-5l-4,2.9l-1.5,4.7l1.5,4.7l4,2.9h5l4-2.9L33,7.7L31.5,2.9L31.5,2.9z M27.4,0.3l3.8,2.8l-2.8,7.1l-5.6-9.8
	H27.4z M22.6,0.6l5.5,9.6l-6.5-2.6L22.6,0.6z M18.7,3.1l3.6-2.6l-1,7h-4L18.7,3.1z M18.7,12.2l-1.4-4.4h4l1.1,7L18.7,12.2z
	 M21.6,7.9l6.5,2.6l-5.4,4.3L21.6,7.9z M27.2,15h-4.4l5.3-4.2L27.2,15z M27.6,14.9l0.9-4.2l2.6,1.6L27.6,14.9z M31.3,12.1l-2.7-1.7
	l2.8-7l1.4,4.2L31.3,12.1z"/>
<path d="M41.6,0h-6.4v15.3h6.4L41.6,0L41.6,0z M41.2,0.3l-1.6,4l-3.9-4H41.2z M35.4,0.5l4,4.1l-1.1,5.2l-2.9,1.3V0.5z M35.4,11.4
	l2.7-1.2l-2.7,4.4V11.4z M35.6,15l2.9-4.8l2.7,4.8L35.6,15L35.6,15z M41.3,14.6l-2.7-4.7l1.1-4.8l1.6,4.1L41.3,14.6L41.3,14.6z
	 M41.3,8.4l-1.5-3.8l1.5-3.8V8.4z"/>
<polygon points="52.9,8.2 51.2,8.2 51.2,6.7 52.6,6.7 52.6,6.3 51.2,6.3 51.2,5 52.8,5 52.8,4.5 50.6,4.5 50.6,8.7 52.9,8.7 "/>
<polygon points="74.8,6.5 76.5,4.5 75.8,4.5 74.2,6.5 74.2,4.5 73.6,4.5 73.6,8.7 74.2,8.7 74.2,6.5 75.9,8.7 76.6,8.7 "/>
<polygon points="58.4,11.4 59.6,11.4 59.6,15.2 60.2,15.2 60.2,11.4 61.4,11.4 61.4,11 58.4,11 "/>
<rect x="62.2" y="11" width="0.6" height="4.2"/>
<rect x="103.8" y="11" width="0.6" height="4.2"/>
<polygon points="86,11.4 87.1,11.4 87.1,15.2 87.7,15.2 87.7,11.4 88.9,11.4 88.9,11 86,11 "/>
<path d="M56.9,8.4L56.7,8c-0.2,0.2-0.6,0.4-1,0.4c-1,0-1.5-0.8-1.5-1.7c0-0.9,0.5-1.7,1.5-1.7c0.4,0,0.7,0.1,0.9,0.3l0.3-0.4
	c-0.3-0.2-0.7-0.3-1.2-0.3c-1.3,0-2.1,1-2.1,2.2c0,1.1,0.7,2.2,2.1,2.2C56.2,8.8,56.7,8.6,56.9,8.4"/>
<polygon points="61.3,8.7 61.3,4.5 60.7,4.5 60.7,6.3 58.4,6.3 58.4,4.5 57.9,4.5 57.9,8.7 58.4,8.7 58.4,6.7 60.7,6.7 60.7,8.7 "/>
<polygon points="46.8,5 47.9,5 47.9,8.7 48.5,8.7 48.5,5 49.7,5 49.7,4.5 46.8,4.5 "/>
<path d="M65.2,5.7c0-0.8-0.6-1.2-1.5-1.2h-1.1v4.2h0.6V7h0.5C64.7,7,65.2,6.6,65.2,5.7 M63.7,6.6h-0.5V5h0.5c0.7,0,1,0.3,1,0.8
	C64.7,6.3,64.4,6.6,63.7,6.6"/>
<path d="M65.4,8.7h0.6l0.4-1h1.9l0.4,1h0.6l-1.6-4.2H67L65.4,8.7z M67.2,5.2c0.1,0.2,0.1,0.4,0.3,0.7L68,7.2h-1.5L67,5.9
	C67.1,5.6,67.2,5.3,67.2,5.2L67.2,5.2z"/>
<path d="M72,7.4c-0.2-0.2-0.3-0.4-0.4-0.5c0.6-0.2,0.9-0.6,0.9-1.2c0-0.8-0.6-1.2-1.5-1.2h-1.1v4.2h0.6V7.1c0,0,0.3,0,0.4,0
	c0.1,0,0.1,0,0.2,0c0.1,0.1,0.3,0.3,0.5,0.6l0.7,1h0.7L72,7.4z M70.9,6.6h-0.5V5h0.5c0.7,0,1,0.3,1,0.8C71.9,6.3,71.6,6.6,70.9,6.6"
	/>
<path d="M48.2,12.7c-0.4-0.2-0.8-0.4-0.8-0.8c0-0.4,0.3-0.6,0.7-0.6c0.4,0,0.7,0.2,0.9,0.3l0.3-0.4c-0.1-0.1-0.5-0.3-1.1-0.3
	c-0.7,0-1.3,0.4-1.3,1.1c0,0.7,0.5,1,1,1.2c0.5,0.2,1,0.4,1,0.9c0,0.4-0.3,0.7-0.8,0.7c-0.6,0-0.9-0.3-1-0.4l-0.3,0.4
	c0.2,0.2,0.6,0.4,1.2,0.4c0.8,0,1.4-0.5,1.4-1.2C49.3,13.3,48.7,13,48.2,12.7"/>
<path d="M52.5,10.6c0.2,0,0.4-0.2,0.4-0.4c0-0.2-0.2-0.4-0.4-0.4c-0.2,0-0.4,0.2-0.4,0.4C52.2,10.5,52.3,10.6,52.5,10.6"/>
<path d="M53,13.6c0,0.7-0.3,1.2-1.1,1.2c-0.8,0-1.1-0.4-1.1-1.2v-2.6h-0.6v2.6c0,1,0.5,1.7,1.7,1.7c1.1,0,1.6-0.6,1.6-1.7v-2.6H53
	V13.6z"/>
<path d="M51,10.3c0,0.2,0.2,0.4,0.4,0.4s0.4-0.2,0.4-0.4c0-0.2-0.2-0.4-0.4-0.4C51.1,9.9,51,10.1,51,10.3"/>
<path d="M55.8,11h-1v4.2h1c1.7,0,2.4-0.9,2.4-2.2C58.1,11.8,57.4,11,55.8,11 M55.8,14.7h-0.5v-3.3h0.5c1.2,0,1.8,0.5,1.8,1.6
	C57.5,14.1,56.9,14.7,55.8,14.7"/>
<path d="M65.9,13.4c0.6-0.2,0.9-0.6,0.9-1.2c0-0.8-0.6-1.2-1.5-1.2h-1.1v4.2h0.6v-1.7c0,0,0.3,0,0.4,0c0.1,0,0.1,0,0.2,0
	c0.1,0.1,0.3,0.3,0.5,0.6l0.7,1h0.7l-0.9-1.3C66.1,13.6,65.9,13.5,65.9,13.4 M65.2,13h-0.5v-1.6h0.5c0.7,0,1,0.3,1,0.8
	C66.1,12.7,65.9,13,65.2,13"/>
<polygon points="84.3,11 83.7,11 83.7,15.2 85.9,15.2 85.9,14.7 84.3,14.7 "/>
<polygon points="73.2,11 72.7,11 72.7,15.2 74.9,15.2 74.9,14.7 73.2,14.7 "/>
<polygon points="76.4,15.2 76.9,15.2 78.4,11 77.9,11 "/>
<path d="M69.5,10.9c-1.3,0-2.1,1-2.1,2.2c0,1.1,0.8,2.2,2.1,2.2c1.3,0,2.1-1,2.1-2.2C71.6,11.9,70.8,10.9,69.5,10.9 M69.5,14.8
	c-1,0-1.5-0.8-1.5-1.7s0.5-1.7,1.5-1.7c1,0,1.5,0.8,1.5,1.7C71,14,70.5,14.8,69.5,14.8"/>
<path d="M80.6,11L79,15.2h0.6l0.4-1h1.9l0.4,1h0.6L81.2,11H80.6z M80.1,13.7l0.5-1.4c0.1-0.3,0.2-0.5,0.2-0.7h0
	c0.1,0.2,0.1,0.4,0.3,0.7l0.5,1.4H80.1z"/>
<path d="M100.5,11h-1v4.2h1c1.7,0,2.4-0.9,2.4-2.2C102.9,11.8,102.2,11,100.5,11 M100.5,14.7H100v-3.3h0.5c1.2,0,1.8,0.5,1.8,1.6
	C102.3,14.1,101.7,14.7,100.5,14.7"/>
<path d="M96.5,11l-1.6,4.2h0.6l0.4-1h1.9l0.4,1h0.6L97,11H96.5z M95.9,13.7l0.5-1.4c0.1-0.3,0.2-0.5,0.2-0.7h0
	c0.1,0.2,0.1,0.4,0.3,0.7l0.5,1.4H95.9z"/>
<path d="M91.2,10.9c-1.3,0-2.1,1-2.1,2.2s0.8,2.2,2.1,2.2c1.3,0,2.1-1,2.1-2.2C93.3,11.9,92.5,10.9,91.2,10.9 M91.2,14.8
	c-1,0-1.5-0.8-1.5-1.7s0.5-1.7,1.5-1.7s1.5,0.8,1.5,1.7C92.7,14,92.2,14.8,91.2,14.8"/>
<path d="M107.6,13.4h0.9v1.1c-0.2,0.1-0.5,0.2-1,0.2c-1.1,0-1.5-0.8-1.5-1.7c0-0.9,0.5-1.7,1.5-1.7c0.4,0,0.8,0.1,1.1,0.3l0.3-0.4
	c-0.3-0.3-0.8-0.4-1.3-0.4c-1.4,0-2.2,1-2.2,2.2c0,1.1,0.8,2.2,2.1,2.2c0.7,0,1.2-0.2,1.6-0.4v-1.9h-1.5V13.4z"/>
<polygon points="110.8,14.7 110.8,13.2 112.2,13.2 112.2,12.7 110.8,12.7 110.8,11.4 112.4,11.4 112.4,11 110.2,11 110.2,15.2 
	112.5,15.2 112.5,14.7 "/>
</svg>
