<?xml version="1.0" encoding="UTF-8" standalone="no"?><!DOCTYPE svg PUBLIC "-//W3C//DTD SVG 1.1//EN" "http://www.w3.org/Graphics/SVG/1.1/DTD/svg11.dtd"><svg width="100%" height="100%" viewBox="0 0 520 131" version="1.1" xmlns="http://www.w3.org/2000/svg" xmlns:xlink="http://www.w3.org/1999/xlink" xml:space="preserve" xmlns:serif="http://www.serif.com/" style="fill-rule:evenodd;clip-rule:evenodd;stroke-linejoin:round;stroke-miterlimit:1.41421;"><g><path d="M122.86,61.283c-1.376,-1.514 -3.468,-2.276 -6.275,-2.276c-1.838,0 -3.357,0.314 -4.572,0.937c-1.21,0.623 -2.189,1.39 -2.909,2.309c-0.734,0.923 -1.247,1.893 -1.542,2.923c-0.296,1.029 -0.476,1.944 -0.527,2.756l18.702,0c-0.541,-2.918 -1.496,-5.134 -2.877,-6.649m-12.989,22.058c1.722,1.672 4.206,2.512 7.443,2.512c2.318,0 4.318,-0.582 5.994,-1.745c1.671,-1.159 2.697,-2.392 3.075,-3.69l10.117,0c-1.616,5.029 -4.1,8.626 -7.448,10.787c-3.343,2.166 -7.388,3.246 -12.14,3.246c-3.292,0 -6.266,-0.531 -8.907,-1.584c-2.646,-1.052 -4.885,-2.553 -6.718,-4.497c-1.834,-1.949 -3.256,-4.271 -4.249,-6.977c-1.006,-2.702 -1.5,-5.675 -1.5,-8.922c0,-3.135 0.512,-6.058 1.537,-8.759c1.025,-2.697 2.485,-5.038 4.373,-7.014c1.889,-1.972 4.142,-3.528 6.76,-4.664c2.619,-1.136 5.518,-1.704 8.704,-1.704c3.561,0 6.664,0.688 9.305,2.073c2.65,1.376 4.821,3.228 6.52,5.555c1.704,2.323 2.928,4.974 3.685,7.943c0.757,2.973 1.025,6.086 0.808,9.327l-30.195,0c0.162,3.731 1.109,6.437 2.836,8.113" style="fill-rule:nonzero;"/><path d="M192.18,77.38c0.323,1.597 0.877,3.029 1.662,4.299c0.781,1.269 1.824,2.281 3.122,3.038c1.298,0.762 2.918,1.136 4.867,1.136c1.944,0 3.579,-0.374 4.904,-1.136c1.325,-0.757 2.378,-1.769 3.163,-3.038c0.785,-1.27 1.339,-2.702 1.662,-4.299c0.328,-1.594 0.49,-3.233 0.49,-4.904c0,-1.677 -0.162,-3.325 -0.49,-4.95c-0.323,-1.626 -0.877,-3.053 -1.662,-4.299c-0.785,-1.243 -1.838,-2.254 -3.163,-3.039c-1.325,-0.785 -2.96,-1.177 -4.904,-1.177c-1.949,0 -3.569,0.392 -4.867,1.177c-1.298,0.785 -2.341,1.796 -3.122,3.039c-0.785,1.246 -1.339,2.673 -1.662,4.299c-0.323,1.625 -0.489,3.273 -0.489,4.95c0,1.671 0.166,3.31 0.489,4.904m-10.463,-14.029c1.029,-2.729 2.489,-5.061 4.382,-6.977c1.888,-1.916 4.16,-3.403 6.811,-4.46c2.65,-1.053 5.619,-1.58 8.921,-1.58c3.297,0 6.284,0.527 8.963,1.58c2.673,1.057 4.959,2.544 6.852,4.46c1.889,1.916 3.353,4.248 4.378,6.977c1.029,2.729 1.542,5.768 1.542,9.125c0,3.352 -0.513,6.377 -1.542,9.078c-1.025,2.706 -2.489,5.015 -4.378,6.935c-1.893,1.917 -4.179,3.394 -6.852,4.419c-2.679,1.03 -5.666,1.543 -8.963,1.543c-3.302,0 -6.271,-0.513 -8.921,-1.543c-2.651,-1.025 -4.923,-2.502 -6.811,-4.419c-1.893,-1.92 -3.353,-4.229 -4.382,-6.935c-1.025,-2.701 -1.538,-5.726 -1.538,-9.078c0,-3.357 0.513,-6.396 1.538,-9.125" style="fill-rule:nonzero;"/><rect x="228.187" y="35.492" width="6.894" height="57.909" style="fill:#f39200;fill-rule:nonzero;"/><path d="M264.275,73.163c-1.409,0.295 -2.877,0.54 -4.419,0.725c-1.543,0.194 -3.099,0.411 -4.664,0.655c-1.57,0.245 -2.979,0.633 -4.221,1.173c-1.242,0.541 -2.258,1.312 -3.038,2.309c-0.785,1.007 -1.178,2.369 -1.178,4.096c0,1.14 0.231,2.101 0.688,2.881c0.462,0.785 1.058,1.418 1.787,1.907c0.73,0.49 1.594,0.836 2.596,1.053c1.002,0.217 2.013,0.328 3.038,0.328c2.272,0 4.22,-0.314 5.841,-0.937c1.626,-0.619 2.951,-1.404 3.976,-2.351c1.025,-0.946 1.782,-1.971 2.272,-3.084c0.48,-1.104 0.725,-2.147 0.725,-3.117l0,-7.056c-0.868,0.647 -2,1.122 -3.403,1.418m9.65,21.125c-1.787,0 -3.204,-0.498 -4.257,-1.5c-1.057,-0.998 -1.584,-2.637 -1.584,-4.904c-1.893,2.267 -4.091,3.906 -6.608,4.904c-2.516,1.002 -5.231,1.5 -8.15,1.5c-1.893,0 -3.675,-0.203 -5.352,-0.609c-1.676,-0.407 -3.153,-1.081 -4.423,-2.027c-1.265,-0.942 -2.267,-2.166 -2.997,-3.648c-0.734,-1.487 -1.099,-3.288 -1.099,-5.394c0,-2.378 0.406,-4.326 1.219,-5.836c0.813,-1.515 1.879,-2.748 3.205,-3.694c1.325,-0.947 2.84,-1.663 4.543,-2.148c1.7,-0.484 3.445,-0.891 5.228,-1.219c1.893,-0.374 3.694,-0.66 5.393,-0.849c1.704,-0.19 3.2,-0.457 4.502,-0.808c1.298,-0.351 2.323,-0.868 3.08,-1.543c0.757,-0.678 1.136,-1.662 1.136,-2.959c0,-1.515 -0.282,-2.729 -0.85,-3.653c-0.568,-0.919 -1.297,-1.621 -2.193,-2.106c-0.891,-0.489 -1.893,-0.812 -2.997,-0.974c-1.108,-0.162 -2.203,-0.245 -3.283,-0.245c-2.923,0 -5.356,0.554 -7.3,1.663c-1.949,1.108 -3.002,3.204 -3.164,6.284l-6.894,0c0.107,-2.595 0.647,-4.784 1.621,-6.566c0.975,-1.782 2.272,-3.232 3.893,-4.341c1.625,-1.103 3.491,-1.907 5.596,-2.391c2.111,-0.485 4.327,-0.73 6.65,-0.73c1.893,0 3.768,0.134 5.638,0.406c1.865,0.273 3.555,0.822 5.065,1.663c1.515,0.84 2.734,2.013 3.653,3.528c0.914,1.509 1.376,3.486 1.376,5.919l0,21.574c0,1.616 0.097,2.807 0.281,3.569c0.19,0.753 0.832,1.136 1.912,1.136c0.591,0 1.293,-0.139 2.106,-0.406l0,5.351c-1.187,0.702 -2.84,1.053 -4.946,1.053" style="fill:#f39200;fill-rule:nonzero;"/><path d="M313.134,66.35c-0.513,-1.866 -1.298,-3.528 -2.355,-4.987c-1.048,-1.464 -2.406,-2.623 -4.05,-3.486c-1.648,-0.864 -3.583,-1.298 -5.8,-1.298c-2.327,0 -4.294,0.457 -5.919,1.376c-1.621,0.924 -2.951,2.124 -3.976,3.611c-1.03,1.487 -1.769,3.177 -2.226,5.066c-0.461,1.893 -0.692,3.814 -0.692,5.762c0,2.051 0.244,4.041 0.729,5.962c0.485,1.916 1.256,3.606 2.314,5.065c1.052,1.459 2.419,2.637 4.091,3.528c1.676,0.891 3.703,1.339 6.086,1.339c2.378,0 4.363,-0.462 5.961,-1.381c1.593,-0.918 2.877,-2.133 3.851,-3.647c0.97,-1.515 1.672,-3.242 2.106,-5.191c0.434,-1.948 0.651,-3.948 0.651,-6.002c0,-1.944 -0.259,-3.852 -0.771,-5.717m-24.774,-30.859l0,21.656l0.157,0c1.141,-2.323 2.923,-4.017 5.357,-5.07c2.429,-1.053 5.111,-1.584 8.03,-1.584c3.241,0 6.067,0.6 8.473,1.787c2.406,1.187 4.405,2.798 6.003,4.821c1.593,2.032 2.798,4.373 3.606,7.019c0.813,2.65 1.219,5.462 1.219,8.436c0,2.969 -0.397,5.781 -1.177,8.432c-0.785,2.65 -1.972,4.959 -3.57,6.931c-1.593,1.976 -3.592,3.532 -6.002,4.663c-2.406,1.136 -5.2,1.709 -8.391,1.709c-1.029,0 -2.179,-0.111 -3.449,-0.332c-1.27,-0.213 -2.526,-0.559 -3.768,-1.049c-1.247,-0.489 -2.419,-1.149 -3.528,-1.99c-1.108,-0.84 -2.041,-1.875 -2.803,-3.121l-0.157,0l0,5.601l-6.894,0l0,-57.909l6.894,0Z" style="fill:#f39200;fill-rule:nonzero;"/><path d="M48.377,42.176l0,9.296l-6.972,0l0,7.697l26.92,0l0,-7.697l-8.431,0l0,-12.38l-11.517,3.084Z" style="fill-rule:nonzero;"/><path d="M64.758,84.798c-1.944,0 -3.241,-0.328 -3.892,-0.97c-0.652,-0.651 -0.97,-1.948 -0.97,-3.892l0,-20.456l-11.516,3.084l0,21.343c0,2.11 0.346,3.814 1.052,5.112c0.702,1.297 1.663,2.295 2.877,3.001c1.219,0.702 2.623,1.173 4.216,1.418c1.593,0.24 3.283,0.36 5.066,0.36c1.14,0 2.304,-0.023 3.495,-0.079c1.187,-0.055 2.267,-0.161 3.237,-0.323l0,-8.926c-0.536,0.116 -1.108,0.194 -1.699,0.245c-0.596,0.06 -1.215,0.083 -1.866,0.083" style="fill-rule:nonzero;"/><path d="M94.713,50.332c-1.46,0 -2.863,0.217 -4.216,0.647c-1.353,0.439 -2.623,1.043 -3.81,1.824c-1.191,0.789 -2.244,1.731 -3.163,2.84c-0.919,1.108 -1.648,2.313 -2.193,3.611l-0.162,0l0,-7.435l-10.944,2.932l0,38.645l11.517,0l0,-18.895c0,-1.893 0.184,-3.653 0.563,-5.273c0.379,-1.617 1.016,-3.039 1.912,-4.258c0.886,-1.214 2.064,-2.175 3.528,-2.877c1.449,-0.701 3.241,-1.057 5.342,-1.057c0.711,0 1.436,0.042 2.198,0.125c0.753,0.078 1.404,0.175 1.939,0.281l0,-10.703c-0.914,-0.268 -1.75,-0.407 -2.511,-0.407" style="fill-rule:nonzero;"/><path d="M177.395,60.51c-0.462,-2.134 -1.261,-3.944 -2.397,-5.431c-1.131,-1.487 -2.687,-2.65 -4.664,-3.491c-1.971,-0.835 -4.497,-1.256 -7.577,-1.256c-2.438,0 -4.812,0.559 -7.139,1.667c-2.327,1.104 -4.22,2.877 -5.675,5.306l-0.245,0l0,-5.67l-10.948,2.932l0,38.829l11.516,0l0,-21.98c0,-4.266 0.698,-7.337 2.111,-9.202c1.399,-1.866 3.675,-2.799 6.81,-2.799c2.757,0 4.673,0.855 5.759,2.554c1.08,1.708 1.62,4.285 1.62,7.743l0,23.684l11.517,0l0,-25.789c0,-2.595 -0.231,-4.959 -0.688,-7.097" style="fill-rule:nonzero;"/></g><g><path d="M492.045,0l-23.497,0l-11.213,0l-16.229,0l-34.71,0l0,9.941l113.091,0l0,-9.941l-27.442,0Z" style="fill-rule:nonzero;"/><path d="M447.807,19.757l-5.065,0l-9.971,0l-4.756,0l-6.888,0l-14.731,0l0,9.938l41.411,0l0,81.254l10.131,0l0,-16l0,-7.482l0,-5.172l0,-10.399l0,-0.432l0,-12.65l0,-2.921l0,-7.482l0,-5.169l0,-10.834l0,-12.651l-3.548,0l-6.583,0Z" style="fill-rule:nonzero;"/><path d="M504.9,101.013l-6.818,0l-4.713,0l-9.876,0l-5.417,0l0,-6.066l0,-7.481l0,-5.169l0,-10.4l0,-0.434l0,-12.651l0,-2.918l0,-7.481l0,-5.173l0,-10.83l0,-12.651l-10.131,0l0,91.191l51.542,0l0,-9.937l-14.587,0Z" style="fill:#f39200;fill-rule:nonzero;"/><path d="M504.62,120.116l-3.273,0l-0.394,0l-6.463,0l-3.668,0l-4.343,0l-0.395,0l-3.272,0l-6.858,0l-8.008,0l0,9.938l51.539,0l0,-9.938l-10.13,0l-4.735,0Z" style="fill:#f39200;fill-rule:nonzero;"/><path d="M436.919,39.773c0,3.047 -2.517,5.515 -5.619,5.515c-3.104,0 -5.622,-2.468 -5.622,-5.515c0,-3.043 2.518,-5.511 5.622,-5.511c3.102,0 5.619,2.468 5.619,5.511" style="fill:#f39200;fill-rule:nonzero;"/></g></svg>