<?xml version="1.0" encoding="UTF-8" standalone="no"?>
<!-- Created with Inkscape (http://www.inkscape.org/) -->

<svg
   width="256"
   height="1024"
   viewBox="0 0 67.733396 270.93334"
   version="1.1"
   id="svg277"
   inkscape:version="1.1.2 (0a00cf5339, 2022-02-04)"
   sodipodi:docname="film_strip_with_frames.svg"
   xmlns:inkscape="http://www.inkscape.org/namespaces/inkscape"
   xmlns:sodipodi="http://sodipodi.sourceforge.net/DTD/sodipodi-0.dtd"
   xmlns:xlink="http://www.w3.org/1999/xlink"
   xmlns="http://www.w3.org/2000/svg"
   xmlns:svg="http://www.w3.org/2000/svg">
  <style
     id="style2064">
      @keyframes film-negtopos {
         from { filter: none; }
         to { filter: invert(); }
      }

      @keyframes film-postoneg {
         from { filter: invert(); }
         to { filter: none; }
      }

      .negtopos {
         animation-name: film-negtopos;
         animation-duration: 200ms;
         animation-timing-function: ease-in-out;
         animation-fill-mode: forwards;
      }

      .postoneg {
         animation-name: film-postoneg;
         animation-duration: 200ms;
         animation-timing-function: ease-in-out;
         animation-fill-mode: forwards;
      }
   </style>
  <sodipodi:namedview
     id="namedview279"
     pagecolor="#ffffff"
     bordercolor="#cccccc"
     borderopacity="1"
     inkscape:pageshadow="0"
     inkscape:pageopacity="1"
     inkscape:pagecheckerboard="0"
     inkscape:document-units="px"
     showgrid="false"
     units="px"
     inkscape:zoom="1.5689555"
     inkscape:cx="244.43013"
     inkscape:cy="189.29791"
     inkscape:window-width="1440"
     inkscape:window-height="831"
     inkscape:window-x="0"
     inkscape:window-y="0"
     inkscape:window-maximized="1"
     inkscape:current-layer="layer1" />
  <defs
     id="defs274" />
  <g
     inkscape:label="Layer 1"
     inkscape:groupmode="layer"
     id="layer1">
    <path
       d="m 11.117899,185.10492 c -0.0038,-0.0109 -0.005,-0.0192 -0.0069,-0.0281 -0.05725,0.0281 -0.08152,0.0515 0.0069,0.0281 z M 17.134763,54.718899 c -2.822558,1.409337 -5.698499,-2.756557 -3.122478,-4.675469 3.252542,-2.421692 6.652615,2.759469 3.122478,4.675469 m -3.53208,6.189632 c 2.576023,-3.009888 7.050571,1.315189 4.076596,3.813562 -2.526519,2.122733 -5.813031,-1.157952 -4.076596,-3.813562 m 4.316339,14.08076 c -0.996826,1.054089 -2.601255,1.143384 -3.764057,0.327094 -1.372454,-0.96188 -1.317129,-2.675024 -0.552282,-4.032921 1.166683,-0.935669 2.832265,-1.504459 4.048447,-0.289239 1.114271,1.112327 1.363719,2.761405 0.267902,3.995066 m -4.228984,6.713761 c 0.951207,-0.95314 2.760437,-1.284129 3.859179,-0.377573 1.196771,0.988091 1.442336,3.025416 0.28439,4.148426 -2.513902,2.435282 -6.501201,-1.0803 -4.143569,-3.770853 m 3.355427,14.821341 c -1.084181,0.902679 -2.90409,-0.05925 -3.53014,-1.038556 -0.937616,-1.468545 -0.395039,-2.881769 0.82891,-3.931964 3.338926,-1.783032 6.000361,3.261264 2.70123,4.97052 m 0.959939,9.677057 c -1.656843,1.91211 -4.135803,0.91916 -5.098654,-1.09001 -0.05241,0.0602 -0.103863,0.12134 -0.156278,0.18152 0.07572,-0.81727 -0.401834,-1.50835 -0.548397,-2.28485 -0.09611,-0.49986 -0.292156,-1.22977 -0.126179,-1.73255 0.307685,0.18443 0.655168,0.25335 0.988091,0.37563 0.545487,0.20189 0.556163,0.78038 1.110385,0.51928 0.913353,-0.42998 1.636464,-0.77068 2.628436,-0.33098 1.572401,0.69593 2.473133,2.92446 1.202594,4.36196 m -0.173748,21.05465 c -1.172506,1.10649 -2.667257,1.16474 -3.899943,0.14461 -1.477282,-1.22201 -0.983237,-2.61193 -0.268864,-4.1096 0.480457,-1.00847 2.929326,-0.90365 3.732026,-0.26402 1.294806,1.01819 1.535517,2.96136 0.436778,4.22899 m 0.524135,40.71742 c -0.862879,3.24672 -5.839239,2.01307 -5.436432,-1.222 0.483367,-3.88151 6.664264,-2.47315 5.436432,1.222 m 0,10.33125 c -1.12786,3.18462 -6.089659,2.26349 -5.420903,-1.14434 0.728933,-3.71454 5.988713,-2.56242 5.420903,1.14434 m -5.363637,-22.36304 c 0.67361,-1.24625 1.058946,-1.86357 2.594463,-2.01013 1.506398,-0.14474 2.767234,0.99488 2.880793,2.50224 0.337775,4.44642 -6.756474,3.36224 -5.475256,-0.49211 m 5.363637,-8.76273 c -0.947323,3.22633 -6.006186,1.7869 -5.326752,-1.50542 0.353305,-1.70829 1.753906,-2.50517 3.430163,-2.09848 1.682082,0.40862 2.243101,2.03927 1.896589,3.6039 m -0.436778,-9.59068 c -0.862878,1.06477 -2.608052,1.31616 -3.726205,0.51928 -1.384101,-0.98808 -1.605401,-2.5333 -0.764847,-3.97371 1.85,-3.17586 6.977775,0.65808 4.491052,3.45443 m 0.347481,113.25562 c 0,3.60388 -5.748972,3.36513 -5.504375,-0.22726 0.242642,-3.57674 5.989682,-3.33408 5.504375,0.22726 m -0.522193,11.9881 c -1.581138,2.3722 -4.231896,0.72796 -5.276281,-1.1327 -0.244596,0.35038 -0.575576,0.0247 -0.826967,0.34843 0.261102,-0.36107 0.538694,-0.7435 0.659051,-1.17929 0.171797,-0.62508 0.005,-0.62216 0.579458,-1.09292 0.773584,-0.63284 1.671404,-1.32585 2.71385,-1.37343 2.305219,-0.10478 3.295249,2.7158 2.150889,4.42991 m 0,-62.46899 c -1.237539,1.10651 -2.716761,1.08904 -3.983417,0.11061 -1.296745,-1.00073 -1.141448,-2.18101 -0.493074,-3.55443 0.594989,-1.25889 2.735203,-1.54522 3.835884,-0.82891 1.42875,0.93085 1.689845,2.95942 0.640607,4.27267 m 0,10.37591 c -0.620226,0.76193 -1.853879,1.16863 -2.794409,0.89492 -0.480456,-0.13976 -0.91044,-0.40767 -1.295775,-0.72118 -0.199941,-0.16508 -0.391161,-0.33874 -0.574607,-0.52413 -0.08055,0.0495 -0.168878,0.0776 -0.262068,0.0875 -0.06988,-1.06575 0.03494,-2.14408 0.37369,-3.16132 0.306714,-0.92206 2.051887,-1.23946 2.940001,-1.1463 2.11983,0.22232 2.791498,3.0361 1.613168,4.57064 M 18.092758,33.008172 c -2.236306,2.405191 -6.086746,0 -4.638585,-3.038035 0.59499,-1.249188 2.485753,-1.926679 3.706793,-1.181243 1.575311,0.962852 1.850968,2.658524 0.931792,4.219278 m 34.70736,185.620998 c 2.823529,-1.41225 5.69657,2.75367 3.121504,4.67451 -3.250594,2.42268 -6.653576,-2.76238 -3.121504,-4.67451 m 3.531106,-6.19058 c -2.575046,3.00987 -7.049589,-1.31714 -4.075613,-3.81358 2.52652,-2.1237 5.81206,1.15795 4.075613,3.81358 M 52.015869,198.3578 c 0.995845,-1.05505 2.600284,-1.14337 3.763084,-0.3271 1.373418,0.9619 1.318092,2.676 0.552271,4.03294 -1.166681,0.9347 -2.83225,1.50445 -4.048443,0.28922 -1.113297,-1.11327 -1.36177,-2.76138 -0.266902,-3.99506 m 4.228011,-6.71374 c -0.951212,0.95216 -2.760437,1.28314 -3.859179,0.37659 -1.196778,-0.98807 -1.441379,-3.02445 -0.283429,-4.14745 2.513906,-2.43624 6.500234,1.08031 4.142608,3.77086 m -3.355432,-14.82231 c 1.085152,-0.9017 2.904084,0.0602 3.530142,1.03954 0.938587,1.46758 0.395036,2.88174 -0.828912,3.93102 -3.338925,1.78301 -5.999395,-3.26035 -2.70123,-4.97056 m -0.959943,-9.67609 c 1.656848,-1.91211 4.137739,-0.92113 5.099634,1.09 0.05143,-0.0611 0.102947,-0.12133 0.155315,-0.1824 -0.07471,0.81821 0.401827,1.50832 0.54839,2.28483 0.09616,0.50082 0.292171,1.23073 0.126183,1.73351 -0.307682,-0.18544 -0.655158,-0.25422 -0.988089,-0.3766 -0.545483,-0.20085 -0.556165,-0.78036 -1.109414,-0.51928 -0.91336,0.42998 -1.636469,0.76971 -2.628431,0.33194 -1.573386,-0.69593 -2.47217,-2.92447 -1.203578,-4.36195 m 0.173754,-21.05562 c 1.172505,-1.10554 2.667259,-1.16377 3.899948,-0.14365 1.477271,1.22202 0.983231,2.61096 0.268854,4.10862 -0.48046,1.00848 -2.929323,0.90463 -3.731055,0.265 -1.29383,-1.01818 -1.535513,-2.96137 -0.437747,-4.22997 m -0.523182,-40.71658 c 0.858989,-3.24769 5.838255,-2.01306 5.435452,1.22104 -0.483367,3.88247 -6.666201,2.47217 -5.435452,-1.22104 m 0,-10.331237 c 1.126876,-3.184612 6.088679,-2.263487 5.419931,1.144349 -0.728943,3.713571 -5.990652,2.561457 -5.419931,-1.144349 m 5.362663,22.363017 c -0.671675,1.24627 -1.058946,1.86262 -2.593494,2.01014 -1.506402,0.14367 -2.768204,-0.99487 -2.881762,-2.50224 -0.335839,-4.44738 6.756472,-3.36222 5.475256,0.4921 m -5.362663,8.76274 c 0.945378,-3.22731 6.005208,-1.7869 5.325776,1.50445 -0.353301,1.70829 -1.752943,2.50518 -3.429186,2.09849 -1.682097,-0.40766 -2.243111,-2.03831 -1.89659,-3.60294 m 0.436772,9.59068 c 0.861906,-1.06574 2.607084,-1.31616 3.725241,-0.51927 1.384091,0.98809 1.605395,2.53329 0.765809,3.9737 -1.849029,3.1749 -6.9768,-0.65614 -4.49105,-3.45443 M 51.667417,22.504081 c 0,-3.604876 5.747993,-3.366105 5.505344,0.226162 -0.241673,3.576728 -5.990653,3.334075 -5.505344,-0.226162 m 0.523161,-11.988105 c 1.581142,-2.3731616 4.231894,-0.7269919 5.27532,1.13174 0.245556,-0.350391 0.575569,-0.02421 0.82696,-0.34748 -0.261098,0.3601 -0.538693,0.741552 -0.658086,1.17833 -0.171791,0.626049 -0.0051,0.622167 -0.579453,1.092916 -0.773586,0.632843 -1.672379,1.325862 -2.714818,1.372455 -2.305218,0.105794 -3.295258,-2.71385 -2.149923,-4.427961 m 0,62.468017 c 1.238505,-1.108441 2.715785,-1.089039 3.982445,-0.111621 1.297713,1.000696 1.141452,2.181945 0.49405,3.55537 -0.594984,1.25986 -2.736175,1.546197 -3.836857,0.828903 -1.426814,-0.930813 -1.689853,-2.960379 -0.639638,-4.272662 m 0,-10.375902 c 0.619247,-0.761936 1.853878,-1.168626 2.794408,-0.894909 0.479484,0.139768 0.910442,0.406685 1.294816,0.720198 0.199928,0.164999 0.391143,0.339715 0.574604,0.524134 0.08162,-0.04854 0.168875,-0.07764 0.262053,-0.08639 0.06994,1.066707 -0.03496,2.145065 -0.372714,3.1613 -0.307682,0.923065 -2.052851,1.238517 -2.939996,1.145336 -2.118859,-0.2213 -2.794418,-3.036098 -1.613171,-4.569671 M 51.842136,240.33892 c 2.235325,-2.40809 6.085773,9.6e-4 4.637603,3.03709 -0.594984,1.24917 -2.484774,1.92763 -3.705825,1.18124 -1.575308,-0.96286 -1.851938,-2.65756 -0.931778,-4.21833 m 8.500665,14.51562 c -0.945378,-1.31616 -2.162536,-0.12134 -3.131222,0.47753 -0.175674,0.10867 -1.089024,0.64546 -1.308385,0.39892 -0.21548,-0.24267 -0.509582,-0.58138 -1.102624,-0.4523 -1.566576,0.34263 -2.903108,-0.30476 -3.526258,-1.86358 -0.449397,-1.80147 0.727001,-3.67672 2.656586,-3.75241 0.854141,-0.033 1.59084,0.31253 2.168361,0.93469 0.275653,0.298 0.504723,0.64352 0.658086,1.02012 0.232952,0.57363 -0.08152,0.77749 0.645451,0.68625 0.457162,-0.0572 0.916266,-0.0999 1.366639,-0.1981 0.733782,-0.16123 0.486274,-0.49891 0.490156,-1.15309 0.0051,-1.20164 0.0071,-2.4023 0.0071,-3.60489 0,-2.06257 -0.002,-4.1261 0.01352,-6.18866 0.0071,-1.01912 0.01952,-2.03924 0.03883,-3.05937 0.0061,-0.31549 0.271782,-2.68668 0.150447,-2.78471 -0.660027,-0.52996 -1.48893,-0.8522 -2.256692,-1.37053 -1.064761,-0.71728 -2.099455,0.46592 -3.144801,0.61149 -1.315196,0.18159 -2.564373,-1.19967 -2.81674,-2.37608 -0.36009,-1.67915 0.999749,-3.40295 2.729375,-3.44277 0.76582,-0.0193 1.477291,0.31739 2.052871,0.80271 0.328062,0.27662 0.69108,1.26277 1.021084,1.39186 0.0061,0.003 2.198447,-0.6775 2.198447,-0.40085 0,-0.45912 0,-0.9192 0,-1.37829 0,-6.46044 0,-12.92088 0,-19.38032 0,-8.6492 0,-17.29642 0,-25.94464 0,-4.96275 -0.238756,-9.96533 0.329049,-14.89705 0.03304,-0.2931 0.08152,-0.58332 0.14947,-0.87065 -0.35136,-0.46588 -0.480449,0.10978 -0.484332,-0.72212 -0.0051,-0.94152 0.02917,-1.883 0.04371,-2.82451 0.01016,-0.73572 0.01159,-1.47243 -0.04076,-2.20621 -0.03202,-0.41737 0.02724,-0.63575 -0.286326,-0.8299 -0.155284,-0.096 -0.397954,-0.40472 -0.496947,-0.0437 -0.256239,-0.49403 -1.13077,-0.56588 -1.613181,-0.56588 -0.25138,-0.83861 -0.812404,-0.23496 -1.236562,0.0971 -1.545221,1.20942 -3.782498,-0.20194 -4.219281,-1.85482 -0.530927,-2.0063 1.510285,-4.10959 3.566053,-3.44764 0.799791,0.25725 1.25307,1.02982 1.919888,1.486 0.679432,0.46397 1.066702,-0.57655 1.588898,-0.17967 -0.155285,-0.32029 0.04665,-0.34262 0.30575,-0.30768 0.709519,0.0941 0.479484,-0.51345 0.485308,-1.06478 0.01738,-1.50929 0.0311,-3.01958 0.04178,-4.52889 0.02419,-3.06133 0.0369,-6.12265 0.04463,-9.18496 0.01647,-6.2304 0.0071,-12.46079 0.0051,-18.6912 -0.0031,-6.25173 -0.002,-12.5035 0.03202,-18.75525 0.01738,-3.08947 0.04269,-6.177978 0.07969,-9.266483 0.0185,-1.527737 0.03984,-3.054524 0.06506,-4.581315 0.004,-0.266913 0.165948,-1.709258 0.0081,-1.769441 -0.416402,-0.159189 -0.579462,-0.06414 -0.71826,-0.54839 -0.08935,0.04472 -0.438724,-0.349419 -0.702729,-0.464929 -0.579462,0.165001 -1.071561,-0.255263 -1.265684,-0.740582 -1.333635,0.921115 -2.771111,1.618995 -4.26684,0.530927 -1.479222,-1.075444 -1.454949,-3.162263 -0.210621,-4.389137 0.991007,-0.979351 3.166169,-1.09 3.874711,0.26304 0.654193,1.249177 2.121766,0.67263 3.2176,0.935669 0.02816,-2.363447 -0.05051,-4.726905 -0.02043,-7.090365 0.01352,-1.152124 0.05438,-2.30619 0.151412,-3.455401 0.07379,-0.885201 -0.165987,-1.922789 -0.171791,-2.87594 -0.01352,-2.419756 0.07085,-4.839499 0.109665,-7.259253 0.01952,-1.206479 0.02613,-2.413926 0.0031,-3.620404 -0.01261,-0.691083 -0.03588,-1.382163 -0.07186,-2.072272 -0.194134,-0.429982 0.29895,-0.673608 0.174708,-1.090003 -0.739605,0.462013 -0.638661,-0.611489 -1.005552,-0.919176 -0.3601,-0.302832 -0.462987,0.279537 -0.873555,-0.18635 0.04563,0.05145 -1.128838,0.121333 -0.823088,-0.246522 -1.066712,0.845407 -2.650761,1.707318 -3.986327,0.927909 -1.154067,-0.67361 -1.724788,-2.079064 -1.353039,-3.350573 0.386306,-1.321011 1.627726,-2.184861 3.006004,-2.051887 0.737664,0.07085 1.040498,0.45716 1.632575,0.822114 0.642545,0.396983 1.395751,0.514427 2.13925,0.514427 0.430947,0.02531 1.089024,-0.767759 1.089024,-1.152124 0,-0.839584 0,-1.679169 0,-2.518752 0,-0.727966 0,-1.455929 0,-2.183891 0,-0.950238 -1.6316,-0.712435 -1.743228,-1.20648 -0.28536,0.446486 -0.511523,-0.287302 -0.871613,-0.08736 -0.601784,0.390186 -1.207451,0.798819 -1.908228,0.991001 -1.453018,0.397954 -2.735209,-0.508605 -3.257406,-1.848057 -1.263742,-3.237012 3.150626,-4.861827 5.165634,-2.543992 0,-0.470749 0.682339,-0.162083 0.611492,-0.304774 0.625071,0.583344 1.385067,-0.234882 2.091679,0 0,-1.671403 0,-3.342807 0,-5.013242 0,-0.350393 0.213528,-1.408366 -0.186347,-1.608314 -0.260143,-0.129095 -1.175424,-0.369805 -1.286075,-0.340688 -0.423192,0.108706 -0.365925,-0.578487 -0.526068,-0.568779 -0.114545,0.0077 -0.068,0.328066 -0.129101,0.364951 -0.07674,0.04658 -0.243625,-0.221292 -0.313507,-0.244595 -1.625784,3.071035 -6.255632,1.578224 -5.462632,-1.911148 0.384364,-1.686935 2.345977,-2.506138 3.855286,-1.796613 0.343594,0.161118 2.308134,1.470484 2.216886,0.481426 0.183472,-0.09027 0.241684,0.220329 0.312552,0.268863 -0.09219,-0.06308 1.519015,-1.03759 1.519015,-1.431661 0,-0.499871 0,-0.999737 0,-1.499607 0,-1.925706 0,-3.851412 0,-5.777119 0,-1.894645 0,-3.788324 0,-5.681999 0,-2.032475 0.492099,-3.828118 1.046333,-5.800414 -0.661003,-0.09416 -0.959953,0.255271 -0.96965,-0.612462 -0.01078,-0.8735559 0.0071,-1.7471117 -0.0051,-2.6206656 -0.0051,-0.3397172 -0.01545,-0.6804037 -0.03496,-1.020119 -0.04465,-0.7735706 -0.384387,-0.5017971 -1.049263,-0.5076213 -0.857047,-0.00762 -1.715081,-0.015409 -2.571162,-0.02228 -3.560229,-0.031063 -7.120458,-0.060174 -10.680685,-0.08832 9.58e-4,-0.048535 0.002,-0.09511 0.0031,-0.1426853 -5.280167,0 -10.55936,0 -15.83855,0 -3.51849,0 -7.03601,0 -10.5545,0 -1.137567,0 -2.275129,0 -3.412694,0 -0.749316,0 -1.176388,-0.1844233 -1.49475,0.6114893 0,0.2377996 0.127139,0.00956 0.220328,0.042702 0.313509,0.1125861 -0.48919,0.1582027 -0.51928,0.2106153 -0.05046,0.082516 0.827937,0.2212932 0.474632,0.5746058 0.992942,0.2824509 2.049945,-0.063083 3.036093,0.3552459 1.322953,0.5600463 1.714113,2.086827 1.453015,3.3835729 -0.618283,3.085598 -5.46555,2.247953 -5.667439,-0.688167 -0.663903,0.373688 -1.505427,0.05145 -2.048003,-0.391157 -0.27079,1.060884 -0.31351,2.169331 -0.297981,3.259334 0.01156,0.774553 0.562958,3.017651 -0.443571,3.017651 -0.5493701,0.364954 -0.9812979,1.177361 -0.9977971,1.797586 -0.00762,0.312539 0.428042,0.385337 0.6338139,0.584312 0.2805092,0.269825 0.6386662,0.392129 1.0230312,0.309627 1.208421,-0.259151 2.237277,-1.796616 3.308838,-1.339453 0.42416,0.807554 1.55493,-0.0019 2.222716,0.173749 1.025946,0.132974 1.899501,1.088063 2.266392,2.006269 0.542576,2.165448 -1.28995,4.224131 -3.530137,3.6602 -0.994883,-0.289244 -1.829615,-1.245302 -2.07518,-2.237275 -0.154324,-0.625077 -0.83279,-0.289245 -1.426809,-0.198978 -1.006533,0.152398 -0.947326,0.266909 -0.952176,1.237539 -0.01458,2.749763 -0.003,5.500495 -0.01348,8.251226 -0.005,1.364688 -0.01541,2.73035 -0.03785,4.095037 -0.0069,0.381453 -0.319334,3.165188 -0.160158,3.292338 0.661962,0.527047 1.487958,0.852201 2.256688,1.370514 1.064771,0.717287 2.099448,-0.466869 3.144802,-0.612462 1.315188,-0.18247 2.564374,1.199684 2.816735,2.376074 0.360099,1.679168 -0.998766,3.403958 -2.729379,3.443751 -0.764847,0.01843 -1.477279,-0.31739 -2.052857,-0.8027 -0.329038,-0.276623 -0.691078,-1.262774 -1.021091,-1.391865 -0.0069,-0.0031 -2.196508,0.677491 -2.196508,0.400864 0,0.459103 0,0.919176 0,1.378279 0,6.460434 0,12.920868 0,19.381306 0,8.647234 0,17.295441 0,25.942679 0,4.964717 0.235874,9.964372 -0.330981,14.898009 -0.03106,0.29216 -0.08055,0.58238 -0.14849,0.86967 0.351361,0.46785 0.481426,-0.10967 0.484338,0.72214 0.0039,0.94151 -0.0301,1.88301 -0.04369,2.8245 -0.01068,0.73574 -0.01266,1.47341 0.04078,2.20719 0.03106,0.41736 -0.02815,0.63576 0.285361,0.82891 0.156278,0.0961 0.399896,0.40474 0.496955,0.0437 0.255272,0.49501 1.130774,0.56684 1.61317,0.56684 0.251392,0.83959 0.812407,0.23489 1.236567,-0.0971 1.546194,-1.20842 3.782499,0.20092 4.220249,1.85388 0.529955,2.00626 -1.511252,4.11056 -3.566053,3.44859 -0.799789,-0.25818 -1.253068,-1.02981 -1.920852,-1.48601 -0.678463,-0.46492 -1.066711,0.57655 -1.588902,0.17861 0.155287,0.32126 -0.04658,0.34261 -0.305745,0.30864 -0.708552,-0.0941 -0.478516,0.51444 -0.484339,1.06381 -0.0176,1.51027 -0.0301,3.01958 -0.0427,4.5289 -0.02339,3.06229 -0.0359,6.12459 -0.04465,9.18592 -0.01541,6.22943 -0.0076,12.45984 -0.005,18.69021 0.003,6.25178 0.0019,12.50449 -0.03203,18.75528 -0.01761,3.08948 -0.0427,6.17798 -0.0796,9.26745 -0.01843,1.5268 -0.03978,3.05357 -0.06504,4.58133 -0.003,0.26687 -0.165,1.70827 -0.0088,1.76944 0.416396,0.16013 0.579461,0.0641 0.71826,0.54841 0.09027,-0.0456 0.437748,0.35038 0.704666,0.46492 0.577518,-0.1659 1.070594,0.25615 1.263746,0.74058 1.33363,-0.92112 2.772085,-1.62093 4.267809,-0.53094 1.478249,1.0774 1.454958,3.16228 0.211607,4.38912 -0.992944,0.97936 -3.167127,1.09001 -3.876651,-0.26414 -0.653224,-1.2482 -2.121771,-0.67165 -3.216628,-0.93468 -0.02815,2.36245 0.0495,4.72688 0.01954,7.08937 -0.01348,1.1531 -0.05434,2.30717 -0.151407,3.45636 -0.07376,0.88522 0.165962,1.92281 0.171796,2.87595 0.01458,2.41975 -0.06988,4.83853 -0.108707,7.25829 -0.01954,1.20648 -0.02613,2.4149 -0.003,3.62137 0.01266,0.69108 0.0359,1.38218 0.07183,2.07226 0.194108,0.43095 -0.299924,0.67363 -0.175675,1.09098 0.73961,-0.46298 0.638667,0.60956 1.005562,0.91917 0.360097,0.30188 0.462983,-0.2805 0.873556,0.18544 -0.04466,-0.0514 1.127857,-0.12023 0.823083,0.24652 1.06671,-0.8454 2.65173,-1.70925 3.986329,-0.92889 1.154064,0.67364 1.725759,2.08005 1.354012,3.35059 -0.386305,1.32197 -1.629667,2.18584 -3.006974,2.05287 -0.73767,-0.071 -1.040504,-0.45717 -1.631611,-0.82214 -0.643519,-0.396 -1.394775,-0.51441 -2.139243,-0.51441 -0.430953,-0.0248 -1.089031,0.76776 -1.089031,1.15212 0,0.83862 0,1.67915 0,2.51877 0,0.72794 0,1.4559 0,2.18388 0,0.94925 1.631608,0.71244 1.74226,1.20648 0.28536,-0.44746 0.512484,0.28825 0.871613,0.0875 0.601783,-0.39117 1.207451,-0.79884 1.908235,-0.99198 1.453018,-0.39797 2.734232,0.51054 3.258367,1.84998 1.264716,3.23607 -3.151597,4.86088 -5.166602,2.54399 0,0.47075 -0.682346,0.16012 -0.611489,0.30381 -0.624107,-0.58335 -1.384102,0.23385 -2.091683,0 0,1.67141 0,3.34185 0,5.01325 0,0.35037 -0.213532,1.40836 0.187341,1.60734 0.260141,0.13014 1.174448,0.37077 1.285099,0.34261 0.423189,-0.10976 0.366894,0.57753 0.526073,0.56785 0.11454,-0.008 0.06796,-0.32809 0.129095,-0.36594 0.07863,-0.0465 0.243633,0.22121 0.313509,0.24543 1.625787,-3.07105 6.258545,-1.57821 5.462637,1.91115 -0.385333,1.6879 -2.344042,2.50612 -3.854323,1.7966 -0.343597,-0.16123 -2.309098,-1.47146 -2.217862,-0.4824 -0.182469,0.0922 -0.242669,-0.22038 -0.311569,-0.26689 0.09219,0.063 -1.519988,1.03566 -1.519988,1.42973 0,0.49987 0,1.00069 0,1.4996 0,1.9267 0,3.8524 0,5.77811 0,1.89463 0,3.78927 0,5.68295 0,2.03153 -0.4911344,3.82716 -1.0453575,5.79946 0.6609919,0.0932 0.9589725,-0.25423 0.9696475,0.61148 0.01068,0.87452 -0.0088,1.74712 0.005,2.62163 0.005,0.3397 0.01541,0.68042 0.03494,1.01916 0.04465,0.77457 0.384365,0.50182 1.04924,0.50858 0.857057,0.008 1.715082,0.0137 2.572139,0.022 3.560227,0.0311 7.119484,0.0611 10.679712,0.0903 -9.59e-4,0.0466 -0.0019,0.0942 -0.0031,0.1417 5.280162,0 10.559355,0 15.838547,0 3.518482,0 7.036009,0 10.554501,0 1.137561,0 2.276106,0 3.4127,0 0.749313,0 1.176378,0.1835 1.494744,-0.61149 0,-0.23882 -0.126174,-0.011 -0.219363,-0.0437 -0.313516,-0.11253 0.488215,-0.1571 0.519278,-0.20966 0.0495,-0.0825 -0.82696,-0.22121 -0.474625,-0.57459 -0.992948,-0.28245 -2.049953,0.0641 -3.037067,-0.35526 -1.321985,-0.56099 -1.713139,-2.08681 -1.453017,-3.38356 0.618281,-3.0856 5.464584,-2.24794 5.667449,0.68817 0.663899,-0.37369 1.505415,-0.0523 2.048967,0.39115 0.506664,-1.98394 0.26498,-4.08436 0.174709,-6.10226 0.169871,-0.33778 0.56198,-0.0941 0.820181,-0.40087 0.193147,-0.22809 0.281477,-0.51734 0.472683,-0.74446 0.178592,-0.21544 0.588184,-1.26279 -0.1155,-1.12204 M 58.81487,88.241223 c 0.004,0.01078 0.0051,0.01952 0.0061,0.02917 0.05733,-0.02714 0.08162,-0.05143 -0.0061,-0.02917"
       style="fill:#3e3a3b;fill-opacity:1;fill-rule:nonzero;stroke:none;stroke-width:0.0970622"
       id="path76" />
    <image
      class="postoneg"
      width="26.514393"
      height="38.615833"
      preserveAspectRatio="none"
      xlink:href="luigi.jpg"
      id="roll-frame1"
      x="22.853323"
      y="12.845077" />
    <image
      class="postoneg"
      width="39.573715"
      height="26.382477"
      preserveAspectRatio="none"
      xlink:href="1938.jpg"
      id="roll-frame2"
      x="-95.960968"
      y="22.675276"
      transform="rotate(-90)" />
    <image
      class="postoneg"
      width="26.354771"
      height="37.084927"
      preserveAspectRatio="none"
      xlink:href="giancarlo.jpg"
      id="roll-frame3"
      x="22.382523"
      y="100.26128" />
    <image
      class="postoneg"
      width="38.876106"
      height="26.170504"
      preserveAspectRatio="none"
      xlink:href="1965.jpg"
      id="roll-frame4"
      x="-180.34538"
      y="22.516581"
      transform="rotate(-90)" />
    <image
      class="postoneg"
      width="26.540817"
      height="36.109482"
      preserveAspectRatio="none"
      xlink:href="matteo.jpg"
      id="roll-frame5"
      x="22.574768"
      y="184.54907" />
    <image
      class="postoneg"
      width="37.982696"
      height="26.503481"
      preserveAspectRatio="none"
      xlink:href="2002.jpg"
      id="roll-frame6"
      x="-262.89462"
      y="22.485228"
      transform="rotate(-90)" />
  </g>
</svg>
