<?xml version="1.0" encoding="UTF-8" standalone="no"?>
<!-- Created with Inkscape (http://www.inkscape.org/) -->

<svg
   width="1024"
   height="256"
   viewBox="0 0 270.93358 67.733335"
   version="1.1"
   id="svg277"
   xmlns="http://www.w3.org/2000/svg"
   xmlns:svg="http://www.w3.org/2000/svg">
  <defs
     id="defs274" />
  <g
     id="layer1">
    <path
       d="m 87.67274,9.8709451 c 0.0109,-0.004 0.0192,-0.005 0.0281,-0.007 -0.0281,-0.0572 -0.0515,-0.0815 -0.0281,0.007 z m 130.38602,6.0168599 c -1.40934,-2.82255 2.75656,-5.69849 4.67547,-3.12247 2.42169,3.25254 -2.75947,6.65261 -4.67547,3.12247 m -6.18963,-3.53208 c 3.00989,2.57603 -1.31519,7.05058 -3.81356,4.0766 -2.12274,-2.52652 1.15795,-5.81303 3.81356,-4.0766 m -14.08076,4.31634 c -1.05409,-0.99682 -1.14339,-2.60125 -0.3271,-3.76405 0.96188,-1.37246 2.67503,-1.31713 4.03293,-0.55229 0.93567,1.16669 1.50446,2.83227 0.28924,4.04845 -1.11233,1.11427 -2.76141,1.36372 -3.99507,0.2679 m -6.71376,-4.22898 c 0.95314,0.95121 1.28413,2.76044 0.37757,3.85918 -0.98809,1.19677 -3.02542,1.44233 -4.14843,0.28439 -2.43528,-2.5139 1.0803,-6.5012 3.77086,-4.14357 m -14.82134,3.35543 c -0.90268,-1.08418 0.0593,-2.90409 1.03855,-3.53014 1.46855,-0.93762 2.88177,-0.39504 3.93197,0.82891 1.78303,3.33892 -3.26127,6.00036 -4.97052,2.70123 m -9.67706,0.95994 c -1.91211,-1.65685 -0.91916,-4.13581 1.09001,-5.09866 -0.0602,-0.0524 -0.12134,-0.10386 -0.18152,-0.15628 0.81727,0.0757 1.50835,-0.40183 2.28485,-0.54839 0.49986,-0.0961 1.22977,-0.29216 1.73255,-0.12618 -0.18443,0.30768 -0.25335,0.65517 -0.37563,0.98809 -0.20189,0.54549 -0.78038,0.55616 -0.51928,1.11038 0.42998,0.91336 0.77068,1.63647 0.33098,2.62844 -0.69593,1.5724 -2.92446,2.47313 -4.36196,1.20259 m -21.05465,-0.17374 c -1.10649,-1.17251 -1.16474,-2.66726 -0.14461,-3.89995 1.22201,-1.47728 2.61193,-0.98323 4.1096,-0.26886 1.00847,0.48046 0.90365,2.92932 0.26402,3.73202 -1.01819,1.29481 -2.96136,1.53552 -4.22899,0.43678 m -40.71742,0.52414 c -3.24672,-0.86288 -2.01307,-5.83924 1.222,-5.43643 3.88151,0.48336 2.47315,6.66426 -1.222,5.43643 m -10.331251,0 c -3.18462,-1.12786 -2.26349,-6.08966 1.14434,-5.42091 3.71454,0.72894 2.56242,5.98872 -1.14434,5.42091 m 22.363041,-5.36364 c 1.24625,0.67361 1.86357,1.05895 2.01013,2.59446 0.14474,1.5064 -0.99488,2.76724 -2.50224,2.8808 -4.44642,0.33777 -3.36224,-6.75648 0.49211,-5.47526 m 8.76273,5.36364 c -3.22633,-0.94733 -1.7869,-6.00619 1.50542,-5.32675 1.70829,0.3533 2.50517,1.7539 2.09848,3.43016 -0.40862,1.68208 -2.03927,2.2431 -3.6039,1.89659 m 9.59068,-0.43678 c -1.06477,-0.86288 -1.31616,-2.60805 -0.51928,-3.72621 0.98808,-1.3841 2.5333,-1.6054 3.97371,-0.76484 3.17586,1.85 -0.65808,6.97777 -3.45443,4.49105 m -113.25562,0.34748 c -3.60388,0 -3.36513,-5.74897 0.22726,-5.50437 3.57674,0.24264 3.33408,5.98968 -0.22726,5.50437 M 9.9456397,16.497355 c -2.3722,-1.58114 -0.72796,-4.2319 1.1327003,-5.27628 -0.35038,-0.2446 -0.0247,-0.57558 -0.34843,-0.82697 0.36107,0.2611 0.7435,0.53869 1.17929,0.65905 0.62508,0.1718 0.62216,0.005 1.09292,0.57946 0.63284,0.77358 1.32585,1.6714 1.37343,2.71385 0.10478,2.30522 -2.7158,3.29525 -4.4299103,2.15089 m 62.4689903,0 c -1.10651,-1.23754 -1.08904,-2.71676 -0.11061,-3.98342 1.00073,-1.29674 2.18101,-1.14145 3.55443,-0.49307 1.25889,0.59499 1.54522,2.7352 0.82891,3.83588 -0.93085,1.42875 -2.95942,1.68985 -4.27267,0.64061 m -10.37591,0 c -0.76193,-0.62023 -1.16863,-1.85388 -0.89492,-2.79441 0.13976,-0.48046 0.40767,-0.91044 0.72118,-1.29578 0.16508,-0.19994 0.33874,-0.39116 0.52413,-0.5746 -0.0495,-0.0806 -0.0776,-0.16888 -0.0875,-0.26207 1.06575,-0.0699 2.14408,0.0349 3.16132,0.37369 0.92206,0.30671 1.23946,2.05189 1.1463,2.94 -0.22232,2.11983 -3.0361,2.7915 -4.57064,1.61317 m 177.73084,0.34845 c -2.40519,-2.23631 0,-6.08675 3.03803,-4.63859 1.24919,0.59499 1.92668,2.48576 1.18125,3.7068 -0.96286,1.57531 -2.65853,1.85097 -4.21928,0.93179 m -185.621,34.70736 c 1.41225,2.82353 -2.75367,5.69657 -4.67451,3.1215 -2.42268,-3.25059 2.76238,-6.65357 4.67451,-3.1215 m 6.19058,3.53111 c -3.00987,-2.57505 1.31714,-7.04959 3.81358,-4.07562 2.1237,2.52652 -1.15795,5.81206 -3.81358,4.07562 m 14.08079,-4.31536 c 1.05505,0.99585 1.14337,2.60028 0.3271,3.76308 -0.9619,1.37342 -2.676,1.3181 -4.03294,0.55228 -0.9347,-1.16669 -1.50445,-2.83225 -0.28922,-4.04845 1.11327,-1.11329 2.76138,-1.36177 3.99506,-0.2669 m 6.71374,4.22801 c -0.95216,-0.95121 -1.28314,-2.76044 -0.37659,-3.85918 0.98807,-1.19678 3.02445,-1.44138 4.14745,-0.28343 2.43624,2.51391 -1.08031,6.50024 -3.77086,4.14261 m 14.822309,-3.35543 c 0.9017,1.08515 -0.0602,2.90408 -1.03954,3.53014 -1.46758,0.93859 -2.88174,0.39504 -3.931019,-0.82891 -1.78301,-3.33893 3.260349,-5.9994 4.970559,-2.70123 m 9.676091,-0.95994 c 1.91211,1.65684 0.92113,4.13774 -1.09,5.09963 0.0611,0.0514 0.12133,0.10295 0.1824,0.15532 -0.81821,-0.0747 -1.50832,0.40182 -2.28483,0.54839 -0.50082,0.0962 -1.23073,0.29217 -1.73351,0.12618 0.18544,-0.30768 0.25422,-0.65516 0.3766,-0.98809 0.20085,-0.54548 0.78036,-0.55617 0.51928,-1.10941 -0.42998,-0.91336 -0.76971,-1.63647 -0.33194,-2.62844 0.69593,-1.57338 2.92447,-2.47217 4.36195,-1.20357 m 21.05562,0.17375 c 1.10554,1.17251 1.16377,2.66726 0.14365,3.89995 -1.22202,1.47727 -2.61096,0.98323 -4.10862,0.26885 -1.00848,-0.48046 -0.90463,-2.92932 -0.265,-3.73105 1.01818,-1.29383 2.96137,-1.53552 4.22997,-0.43775 m 40.71658,-0.52318 c 3.24769,0.85899 2.01306,5.83825 -1.22104,5.43545 -3.88247,-0.48337 -2.47217,-6.6662 1.22104,-5.43545 m 10.33124,0 c 3.18461,1.12687 2.26348,6.08868 -1.14435,5.41993 -3.71357,-0.72894 -2.56146,-5.99065 1.14435,-5.41993 m -22.36302,5.36266 c -1.24627,-0.67167 -1.86262,-1.05894 -2.01014,-2.59349 -0.14367,-1.5064 0.99487,-2.76821 2.50224,-2.88176 4.44738,-0.33584 3.36222,6.75647 -0.4921,5.47525 m -8.76274,-5.36266 c 3.22731,0.94538 1.7869,6.00521 -1.50445,5.32577 -1.70829,-0.3533 -2.50518,-1.75294 -2.09849,-3.42918 0.40766,-1.6821 2.03831,-2.24311 3.60294,-1.89659 m -9.59068,0.43677 c 1.06574,0.86191 1.31616,2.60708 0.51927,3.72524 -0.98809,1.38409 -2.53329,1.6054 -3.9737,0.76581 -3.1749,-1.84903 0.65614,-6.9768 3.45443,-4.49105 m 113.25463,-0.34845 c 3.60488,0 3.3661,5.74799 -0.22616,5.50534 -3.57673,-0.24167 -3.33408,-5.99065 0.22616,-5.50534 m 11.9881,0.52316 c 2.37317,1.58114 0.727,4.23189 -1.13174,5.27532 0.3504,0.24556 0.0242,0.57557 0.34748,0.82696 -0.3601,-0.2611 -0.74155,-0.53869 -1.17833,-0.65809 -0.62604,-0.17179 -0.62216,-0.005 -1.09291,-0.57945 -0.63284,-0.77359 -1.32586,-1.67238 -1.37246,-2.71482 -0.10579,-2.30522 2.71385,-3.29526 4.42796,-2.14992 m -62.46801,0 c 1.10844,1.2385 1.08904,2.71578 0.11162,3.98244 -1.0007,1.29772 -2.18195,1.14146 -3.55537,0.49405 -1.25986,-0.59498 -1.5462,-2.73617 -0.82891,-3.83685 0.93082,-1.42682 2.96038,-1.68986 4.27267,-0.63964 m 10.3759,0 c 0.76194,0.61925 1.16863,1.85388 0.89491,2.79441 -0.13977,0.47948 -0.40669,0.91044 -0.7202,1.29481 -0.165,0.19993 -0.33971,0.39115 -0.52413,0.57461 0.0485,0.0816 0.0776,0.16887 0.0864,0.26205 -1.06671,0.0699 -2.14507,-0.035 -3.1613,-0.37271 -0.92307,-0.30769 -1.23852,-2.05285 -1.14534,-2.94 0.2213,-2.11886 3.0361,-2.79442 4.56967,-1.61317 M 32.43875,50.595185 c 2.40809,2.23532 -9.6e-4,6.08577 -3.03709,4.6376 -1.24917,-0.59498 -1.92763,-2.48477 -1.18124,-3.70582 0.96286,-1.57531 2.65756,-1.85194 4.21833,-0.93178 m -14.51562,8.50066 c 1.31616,-0.94538 0.12134,-2.16253 -0.47753,-3.13122 -0.10867,-0.17567 -0.64546,-1.08902 -0.39892,-1.30838 0.24267,-0.21548 0.58138,-0.50959 0.4523,-1.10263 -0.34263,-1.56657 0.30476,-2.90311 1.86358,-3.52626 1.80147,-0.44939 3.67672,0.727 3.75241,2.65659 0.033,0.85414 -0.31253,1.59084 -0.93469,2.16836 -0.298,0.27565 -0.64352,0.50472 -1.02012,0.65809 -0.57363,0.23295 -0.77749,-0.0815 -0.68625,0.64545 0.0572,0.45716 0.0999,0.91626 0.1981,1.36664 0.16123,0.73378 0.49891,0.48627 1.15309,0.49015 1.20164,0.005 2.4023,0.007 3.60489,0.007 2.06257,0 4.1261,-0.002 6.18866,0.0135 1.01912,0.007 2.03924,0.0195 3.05937,0.0388 0.31549,0.006 2.68668,0.27178 2.78471,0.15045 0.52996,-0.66003 0.8522,-1.48893 1.37053,-2.25669 0.71728,-1.06476 -0.46592,-2.09946 -0.61149,-3.1448 -0.18159,-1.3152 1.19967,-2.56438 2.37608,-2.81674 1.67915,-0.36009 3.40295,0.99975 3.44277,2.72937 0.0193,0.76582 -0.31739,1.47729 -0.80271,2.05287 -0.27662,0.32806 -1.26277,0.69108 -1.39186,1.02109 -0.003,0.006 0.6775,2.19844 0.40085,2.19844 0.45912,0 0.9192,0 1.37829,0 6.46044,0 12.92088,0 19.38032,0 8.6492,0 17.29642,0 25.94464,0 4.962749,0 9.965329,-0.23875 14.89705,0.32905 0.2931,0.033 0.58332,0.0815 0.87065,0.14947 0.46588,-0.35136 -0.10978,-0.48045 0.72212,-0.48433 0.94152,-0.005 1.883,0.0292 2.82451,0.0437 0.73572,0.0102 1.47243,0.0116 2.20621,-0.0408 0.41737,-0.032 0.63575,0.0272 0.8299,-0.28633 0.096,-0.15528 0.40472,-0.39795 0.0437,-0.49694 0.49403,-0.25624 0.56588,-1.13077 0.56588,-1.61318 0.83861,-0.25138 0.23496,-0.81241 -0.0971,-1.23657 -1.20942,-1.54522 0.20194,-3.78249 1.85482,-4.21928 2.0063,-0.53092 4.10959,1.51029 3.44764,3.56606 -0.25725,0.79979 -1.02982,1.25307 -1.486,1.91988 -0.46397,0.67944 0.57655,1.06671 0.17967,1.5889 0.32029,-0.15528 0.34262,0.0466 0.30768,0.30575 -0.0941,0.70952 0.51345,0.47949 1.06478,0.48531 1.50929,0.0174 3.01958,0.0311 4.52889,0.0418 3.06133,0.0242 6.12265,0.0369 9.18496,0.0446 6.2304,0.0165 12.46079,0.007 18.6912,0.005 6.25173,-0.003 12.5035,-0.002 18.75525,0.032 3.08947,0.0174 6.17798,0.0427 9.26648,0.0797 1.52774,0.0185 3.05453,0.0398 4.58132,0.0651 0.26691,0.004 1.70926,0.16595 1.76944,0.008 0.15919,-0.4164 0.0641,-0.57946 0.54839,-0.71826 -0.0447,-0.0893 0.34942,-0.43872 0.46493,-0.70273 -0.165,-0.57946 0.25526,-1.07156 0.74058,-1.26568 -0.92112,-1.33364 -1.619,-2.77111 -0.53093,-4.26684 1.07545,-1.47922 3.16227,-1.45495 4.38914,-0.21062 0.97935,0.991 1.09,3.16617 -0.26304,3.87471 -1.24918,0.65419 -0.67263,2.12176 -0.93567,3.2176 2.36345,0.0282 4.72691,-0.0505 7.09037,-0.0204 1.15212,0.0135 2.30619,0.0544 3.4554,0.15141 0.8852,0.0738 1.92279,-0.16599 2.87594,-0.17179 2.41975,-0.0135 4.8395,0.0709 7.25925,0.10966 1.20648,0.0195 2.41393,0.0261 3.6204,0.003 0.69109,-0.0126 1.38217,-0.0359 2.07228,-0.0719 0.42998,-0.19413 0.6736,0.29895 1.09,0.17471 -0.46201,-0.7396 0.61149,-0.63866 0.91918,-1.00555 0.30283,-0.3601 -0.27954,-0.46299 0.18635,-0.87356 -0.0515,0.0456 -0.12134,-1.12883 0.24652,-0.82308 -0.84541,-1.06672 -1.70732,-2.65076 -0.92791,-3.98633 0.67361,-1.15407 2.07906,-1.72479 3.35057,-1.35304 1.32101,0.38631 2.18486,1.62773 2.05189,3.006 -0.0709,0.73767 -0.45716,1.0405 -0.82212,1.63258 -0.39698,0.64254 -0.51442,1.39575 -0.51442,2.13925 -0.0253,0.43095 0.76776,1.08902 1.15212,1.08902 0.83959,0 1.67917,0 2.51875,0 0.72797,0 1.45593,0 2.18389,0 0.95024,0 0.71244,-1.6316 1.20648,-1.74322 -0.44648,-0.28536 0.28731,-0.51153 0.0874,-0.87162 -0.39018,-0.60178 -0.79881,-1.20745 -0.991,-1.90823 -0.39795,-1.45301 0.50861,-2.7352 1.84806,-3.2574 3.23701,-1.26374 4.86183,3.15062 2.54399,5.16563 0.47075,0 0.16209,0.68234 0.30478,0.61149 -0.58335,0.62508 0.23488,1.38507 0,2.09168 1.6714,0 3.3428,0 5.01324,0 0.35039,0 1.40836,0.21353 1.60831,-0.18634 0.1291,-0.26015 0.36981,-1.17543 0.34069,-1.28608 -0.10871,-0.42319 0.57849,-0.36592 0.56878,-0.52607 -0.008,-0.11454 -0.32807,-0.068 -0.36495,-0.1291 -0.0466,-0.0767 0.22129,-0.24362 0.24459,-0.3135 -3.07103,-1.62579 -1.57822,-6.25564 1.91115,-5.46264 1.68694,0.38437 2.50614,2.34598 1.79661,3.85529 -0.16111,0.34359 -1.47048,2.30813 -0.48142,2.21689 0.0903,0.18347 -0.22033,0.24168 -0.26886,0.31255 0.0631,-0.0922 1.03759,1.51901 1.43166,1.51901 0.49987,0 0.99973,0 1.4996,0 1.92571,0 3.85142,0 5.77712,0 1.89465,0 3.78833,0 5.682,0 2.03248,0 3.82812,0.4921 5.80042,1.04634 0.0942,-0.66101 -0.25528,-0.95996 0.61246,-0.96965 0.87355,-0.0108 1.74711,0.007 2.62066,-0.005 0.33972,-0.005 0.68041,-0.0154 1.02012,-0.035 0.77357,-0.0447 0.5018,-0.38439 0.50762,-1.04927 0.008,-0.85704 0.0154,-1.71508 0.0223,-2.57116 0.0311,-3.56023 0.0602,-7.12046 0.0883,-10.68068 0.0485,9.5e-4 0.0951,0.002 0.14269,0.003 0,-5.28017 0,-10.55936 0,-15.83855 0,-3.51849 0,-7.03601 0,-10.5545 0,-1.13757 0,-2.27513 0,-3.4127 0,-0.74931 0.18442,-1.17639 -0.61149,-1.49475 -0.2378,0 -0.01,0.12714 -0.0427,0.22033 -0.11259,0.31351 -0.15821,-0.48919 -0.21062,-0.51928 -0.0825,-0.0505 -0.22129,0.82794 -0.5746,0.47463 -0.28245,0.99294 0.0631,2.04995 -0.35525,3.03609 -0.56005,1.32296 -2.08683,1.71412 -3.38357,1.45302 -3.0856,-0.61828 -2.24796,-5.46555 0.68816,-5.66744 -0.37368,-0.6639 -0.0514,-1.50543 0.39116,-2.0479999 -1.06088,-0.2707899 -2.16933,-0.3135099 -3.25933,-0.2979799 -0.77456,0.0116 -3.01765,0.5629499 -3.01765,-0.44357 -0.36496,-0.5493698 -1.17736,-0.9812998 -1.79759,-0.9977998 -0.31254,-0.008 -0.38534,0.42804 -0.58431,0.6338099 -0.26983,0.28051 -0.39213,0.6386699 -0.30963,1.0230298 0.25915,1.2084199 1.79662,2.2372799 1.33945,3.3088399 -0.80755,0.42416 0.002,1.55493 -0.17374,2.22272 -0.13298,1.02594 -1.08807,1.8995 -2.00627,2.26639 -2.16545,0.54258 -4.22413,-1.28995 -3.6602,-3.53014 0.28924,-0.99488 1.2453,-1.82961 2.23727,-2.07518 0.62508,-0.15432 0.28925,-0.83279 0.19898,-1.42681 -0.1524,-1.0065298 -0.26691,-0.9473198 -1.23754,-0.9521698 -2.74976,-0.0146 -5.50049,-0.003 -8.25123,-0.0135 -1.36468,-0.005 -2.73035,-0.0154 -4.09503,-0.0378 -0.38146,-0.007 -3.16519,-0.31934 -3.29234,-0.16016 -0.52705,0.6619599 -0.8522,1.4879598 -1.37051,2.2566898 -0.71729,1.06477 0.46686,2.09945 0.61246,3.1448 0.18247,1.31519 -1.19969,2.56437 -2.37608,2.81673 -1.67916,0.3601 -3.40395,-0.99876 -3.44375,-2.72937 -0.0184,-0.76485 0.31739,-1.47728 0.8027,-2.05286 0.27663,-0.32904 1.26278,-0.69108 1.39187,-1.02109 0.003,-0.007 -0.67749,-2.1965098 -0.40087,-2.1965098 -0.4591,0 -0.91917,0 -1.37828,0 -6.46043,0 -12.92086,0 -19.3813,0 -8.64724,0 -17.29544,0 -25.94268,0 -4.96472,0 -9.96437,0.2358699 -14.89801,-0.33098 -0.29216,-0.0311 -0.58238,-0.0806 -0.86967,-0.14849 -0.46785,0.35136 0.10967,0.48142 -0.72214,0.48434 -0.94151,0.004 -1.88301,-0.0301 -2.8245,-0.0437 -0.73574,-0.0107 -1.47341,-0.0127 -2.20719,0.0408 -0.41736,0.0311 -0.63576,-0.0281 -0.82891,0.2853599 -0.0961,0.15628 -0.40474,0.3998899 -0.0437,0.4969499 -0.49501,0.25527 -0.56684,1.13078 -0.56684,1.61317 -0.83959,0.25139 -0.23489,0.81241 0.0971,1.23657 1.20842,1.54619 -0.20092,3.7825 -1.85388,4.22025 -2.00626,0.52995 -4.11056,-1.51125 -3.44859,-3.56605 0.25818,-0.79979 1.02981,-1.25307 1.48601,-1.92086 0.46492,-0.67846 -0.57655,-1.06671 -0.17861,-1.5889 -0.32126,0.15529 -0.34261,-0.0466 -0.30864,-0.3057399 0.0941,-0.7085599 -0.51444,-0.4785199 -1.06381,-0.4843399 -1.51027,-0.0176 -3.01958,-0.0301 -4.5289,-0.0427 -3.06229,-0.0234 -6.12459,-0.0359 -9.18592,-0.0447 -6.22943,-0.0154 -12.45984,-0.008 -18.69021,-0.005 -6.25178,0.003 -12.50449,0.002 -18.75528,-0.032 -3.08948,-0.0176 -6.177981,-0.0427 -9.267451,-0.0796 -1.5268,-0.0184 -3.05357,-0.0398 -4.581329,-0.065 -0.26687,-0.003 -1.70827,-0.165 -1.76944,-0.009 -0.16013,0.4163899 -0.0641,0.5794599 -0.54841,0.7182599 0.0456,0.0903 -0.35038,0.4377499 -0.46492,0.7046599 0.1659,0.57752 -0.25615,1.0706 -0.74058,1.26375 0.92112,1.33363 1.62093,2.77208 0.53094,4.26781 -1.0774,1.47825 -3.16228,1.45496 -4.38912,0.21161 -0.97936,-0.99295 -1.09001,-3.16713 0.26414,-3.87666 1.2482,-0.65322 0.67165,-2.12177 0.93468,-3.2166198 -2.36245,-0.0281 -4.72688,0.0495 -7.08937,0.0195 -1.1531,-0.0135 -2.30717,-0.0543 -3.45636,-0.15141 -0.88522,-0.0738 -1.92281,0.16596 -2.87595,0.1718 -2.41975,0.0146 -4.83853,-0.0699 -7.25829,-0.10871 -1.20648,-0.0195 -2.4149,-0.0261 -3.62137,-0.003 -0.69108,0.0127 -1.38218,0.0359 -2.07226,0.0718 -0.43095,0.19411 -0.67363,-0.2999299 -1.09098,-0.17568 0.46298,0.7396099 -0.60956,0.6386699 -0.91917,1.0055698 -0.30188,0.36009 0.2805,0.46298 -0.18544,0.87355 0.0514,-0.0447 0.12023,1.12786 -0.24652,0.82308 0.8454,1.06671 1.70925,2.65173 0.92889,3.98633 -0.67364,1.15407 -2.08005,1.72576 -3.35059,1.35402 -1.32197,-0.38631 -2.18584,-1.62967 -2.05287,-3.00698 0.071,-0.73767 0.45717,-1.0405 0.82214,-1.63161 0.396,-0.64352 0.51441,-1.39477 0.51441,-2.13924 0.0248,-0.4309599 -0.76776,-1.0890298 -1.15212,-1.0890298 -0.83862,0 -1.67915,0 -2.51877,0 -0.72794,0 -1.4559,0 -2.18388,0 -0.94925,0 -0.71244,1.6315998 -1.20648,1.7422598 0.44746,0.28536 -0.28825,0.51248 -0.0875,0.87161 0.39117,0.60178 0.79884,1.20745 0.99198,1.90823 0.39797,1.45302 -0.51054,2.73424 -1.84998,3.25837 -3.23607,1.26472 -4.86088,-3.1516 -2.54399,-5.1666 -0.47075,0 -0.16012,-0.68235 -0.30381,-0.61149 0.58335,-0.62411 -0.23385,-1.3840999 0,-2.0916798 -1.67141,0 -3.34185,0 -5.01325,0 -0.35037,0 -1.40836,-0.2135299 -1.60734,0.18734 -0.13014,0.2601399 -0.37077,1.1744498 -0.34261,1.2850998 0.10976,0.42319 -0.57753,0.36689 -0.56785,0.52607 0.008,0.11454 0.32809,0.068 0.36594,0.1291 0.0465,0.0786 -0.22121,0.24363 -0.24543,0.3135 3.07105,1.62579 1.57821,6.25855 -1.91115,5.46264 -1.6879,-0.38533 -2.50612,-2.34404 -1.7966,-3.85432 0.16123,-0.3436 1.47146,-2.3091 0.4824,-2.21786 -0.0922,-0.18247 0.22038,-0.24267 0.26689,-0.31157 -0.063,0.0922 -1.03566,-1.5199898 -1.42973,-1.5199898 -0.49987,0 -1.00069,0 -1.4996,0 -1.9267,0 -3.8524,0 -5.77811,0 -1.89463,0 -3.78927,0 -5.68295,0 -2.03153,0 -3.82716,-0.4911299 -5.79946,-1.0453598 -0.0932,0.6609899 0.25423,0.9589698 -0.6114803,0.9696498 -0.87452,0.0107 -1.74712,-0.009 -2.62163,0.005 -0.3397,0.005 -0.68042,0.0154 -1.01916,0.0349 -0.77457,0.0447 -0.50182,0.3843599 -0.50858,1.0492398 -0.008,0.85706 -0.0137,1.71508 -0.022,2.57214 -0.0311,3.56023 -0.0611,7.11948 -0.0903,10.67971 -0.0466,-9.6e-4 -0.0942,-0.002 -0.1417,-0.003 0,5.28016 0,10.55936 0,15.83855 0,3.51848 0,7.03601 0,10.5545 0,1.13756 0,2.2761 0,3.4127 0,0.74931 -0.1835,1.17638 0.61149,1.49474 0.23882,0 0.011,-0.12617 0.0437,-0.21936 0.11253,-0.31352 0.1571,0.48821 0.20966,0.51928 0.0825,0.0495 0.22121,-0.82696 0.57459,-0.47463 0.28245,-0.99295 -0.0641,-2.04995 0.35526,-3.03706 0.56099,-1.32199 2.08681,-1.71314 3.3835603,-1.45302 3.0856,0.61828 2.24794,5.46458 -0.6881703,5.66745 0.3736903,0.6639 0.0523,1.50541 -0.39115,2.04896 1.9839403,0.50667 4.0843603,0.26498 6.1022603,0.17471 0.33778,0.16987 0.0941,0.56198 0.40087,0.82018 0.22809,0.19315 0.51734,0.28148 0.74446,0.47269 0.21544,0.17859 1.26279,0.58818 1.12204,-0.1155 m 166.61368,-1.52726 c -0.0108,0.004 -0.0195,0.005 -0.0292,0.006 0.0271,0.0573 0.0514,0.0816 0.0292,-0.006"
       style="fill:#3e3a3b;fill-opacity:1;fill-rule:nonzero;stroke:none;stroke-width:0.0970622"
       id="path76" />
  </g>
</svg>
